<?xml version="1.0" encoding="UTF-8"?>
<svg width="1200pt" height="1200pt" version="1.1" viewBox="0 0 1200 1200" xmlns="http://www.w3.org/2000/svg">
  <path
    d="m600 37.5c-131.11-0.19531-258.15 45.48-359.11 129.11-100.97 83.633-169.5 199.95-193.72 328.79-24.223 128.85-2.6055 262.11 61.098 376.7l-69.336 242.62c-3.2227 11.312-0.95312 23.484 6.1367 32.871 7.0898 9.3867 18.172 14.906 29.938 14.902 3.4727-0.003906 6.9297-0.48438 10.273-1.4258l242.62-69.336c100.46 55.598 215.54 79.105 329.75 67.363 114.22-11.738 222.1-58.164 309.15-133.04 87.051-74.871 149.09-174.6 177.79-285.77s22.664-228.47-17.277-336.12c-39.941-107.65-111.88-200.49-206.15-266.04-94.27-65.551-206.34-100.67-321.16-100.64zm0 225c9.9453 0 19.484 3.9492 26.516 10.984 7.0352 7.0312 10.984 16.57 10.984 26.516s-3.9492 19.484-10.984 26.516c-7.0312 7.0352-16.57 10.984-26.516 10.984s-19.484-3.9492-26.516-10.984c-7.0352-7.0312-10.984-16.57-10.984-26.516s3.9492-19.484 10.984-26.516c7.0312-7.0352 16.57-10.984 26.516-10.984zm112.5 675h-112.5c-9.9453 0-19.484-3.9492-26.516-10.984-7.0352-7.0312-10.984-16.57-10.984-26.516v-412.5h-75c-13.398 0-25.777-7.1484-32.477-18.75-6.6992-11.602-6.6992-25.898 0-37.5 6.6992-11.602 19.078-18.75 32.477-18.75h112.5c9.9453 0 19.484 3.9492 26.516 10.984 7.0352 7.0312 10.984 16.57 10.984 26.516v412.5h75c13.398 0 25.777 7.1484 32.477 18.75 6.6992 11.602 6.6992 25.898 0 37.5-6.6992 11.602-19.078 18.75-32.477 18.75z"
    fill="#000" />
</svg>