<?xml version="1.0" encoding="UTF-8"?>
<svg width="1200pt" height="1200pt" version="1.1" viewBox="0 0 1200 1200" xmlns="http://www.w3.org/2000/svg">
 <path d="m945.34 922.24c-6.1484-41.164-70.711-77.012-98.863-101.44-84.961-73.676-169.93-147.35-254.88-221.04 64.715-56.125 129.45-112.26 194.16-168.39 54.449-47.227 151.3-99.637 162.79-175.71 0.77344-2.8984 1.2891-5.9883 1.2891-9.4141 0-46.523 5.4375-88.789-20.625-128.89-6.2891-9.6758-17.773-18.398-30.086-17.25-41.062 3.8359-67.363 31.023-100.25 54.801-52.324 37.812-104.62 75.625-156.95 113.44-97.164 70.227-194.32 140.45-291.49 210.66-58.148 42.023-125.91 78.789-93.023 161.12 14.664 36.676 63.023 58.664 93.023 80.352 52.324 37.801 104.64 75.613 156.95 113.44 97.164 70.199 194.32 140.43 291.49 210.66 27.387 19.801 66.586 64.477 105.41 53.812 29.512-8.1133 40.477-41.664 44.324-68.039 5.0938-35.266 1.957-73.078-3.2812-108.13z" fill="#fff"/>
</svg>
