<?xml version="1.0" encoding="UTF-8"?>
<svg width="1200pt" height="1200pt" version="1.1" viewBox="0 0 1200 1200" xmlns="http://www.w3.org/2000/svg">
 <g fill="#fff">
  <path d="m657.69 416.11c18.609 0 33.75-15.141 33.75-33.75s-15.141-33.75-33.75-33.75-33.75 15.141-33.75 33.75 15.141 33.75 33.75 33.75zm0-43.5c5.3789 0 9.75 4.3711 9.75 9.75s-4.3711 9.75-9.75 9.75-9.75-4.3711-9.75-9.75 4.3711-9.75 9.75-9.75z"/>
  <path d="m775.96 416.11c18.609 0 33.75-15.141 33.75-33.75s-15.141-33.75-33.75-33.75-33.75 15.141-33.75 33.75 15.141 33.75 33.75 33.75zm0-43.5c5.3789 0 9.75 4.3711 9.75 9.75s-4.3711 9.75-9.75 9.75c-5.3789 0-9.75-4.3711-9.75-9.75s4.3711-9.75 9.75-9.75z"/>
  <path d="m894.22 416.11c18.609 0 33.75-15.141 33.75-33.75s-15.141-33.75-33.75-33.75-33.75 15.141-33.75 33.75 15.141 33.75 33.75 33.75zm0-43.5c5.3789 0 9.75 4.3711 9.75 9.75s-4.3711 9.75-9.75 9.75-9.75-4.3711-9.75-9.75 4.3711-9.75 9.75-9.75z"/>
  <path d="m281.62 970.39h516.01c42.668 0 77.379-34.715 77.379-77.387v-336.64c0-1.3555-0.35938-2.6094-0.77344-3.8281l12.469-12.469c1.418-1.3984 3.3516-2.207 5.332-2.207h33.012c32.203 0 58.406-26.199 58.406-58.398v-187.2c0-32.203-26.203-58.398-58.406-58.398l-298.2-0.003906c-32.203 0-58.395 26.199-58.395 58.398v7.3555h-286.84c-42.668 0-77.379 34.711-77.379 77.379v516.01c0 42.668 34.711 77.387 77.379 77.387zm310.84-678.13c0-18.965 15.434-34.398 34.395-34.398h298.2c18.973 0 34.406 15.434 34.406 34.398v187.2c0 18.965-15.434 34.398-34.406 34.398h-33.012c-8.4141 0-16.324 3.2734-22.289 9.2344l-48.539 48.539v-29.145c0-15.785-12.844-28.629-28.629-28.629h-165.73c-18.961 0-34.395-15.434-34.395-34.398zm-364.22 84.73c0-29.43 23.941-53.379 53.379-53.379h286.84v89.52h-280.68c-6.6328 0-12 5.3711-12 12 0 6.6289 5.3672 12 12 12h280.68v42.324c0 32.203 26.191 58.398 58.395 58.398h165.73c2.5547 0 4.6289 2.0742 4.6289 4.6289v55.125c0 5.3867 3.2227 10.191 8.1914 12.246 1.6523 0.67188 3.3633 1.0039 5.0742 1.0039 3.4453 0 6.8086-1.3477 9.3281-3.8867l31.207-31.211v317.24c0 29.438-23.941 53.387-53.379 53.387l-516.01-0.003906c-29.438 0-53.379-23.949-53.379-53.387z"/>
  <path d="m287.79 380.89h30.562c6.6328 0 12-5.3711 12-12 0-6.6289-5.3672-12-12-12h-30.562c-6.6328 0-12 5.3711-12 12 0 6.625 5.3672 12 12 12z"/>
  <path d="m372.14 380.89h30.562c6.6328 0 12-5.3711 12-12 0-6.6289-5.3672-12-12-12h-30.562c-6.6328 0-12 5.3711-12 12 0 6.625 5.3672 12 12 12z"/>
  <path d="m312.73 647h96.258c20.379 0 36.949-16.57 36.949-36.945v-96.258c0-20.367-16.57-36.938-36.949-36.938h-96.258c-20.367 0-36.938 16.57-36.938 36.938v96.258c0 20.375 16.57 36.945 36.938 36.945zm-12.938-133.2c0-7.1328 5.8008-12.938 12.938-12.938h96.258c7.1367 0 12.949 5.8047 12.949 12.938v96.258c0 7.1367-5.8125 12.945-12.949 12.945h-96.258c-7.1367 0-12.938-5.8047-12.938-12.945z"/>
  <path d="m481.09 647h58.535c6.6328 0 12-5.3711 12-12s-5.3672-12-12-12h-58.535c-6.6328 0-12 5.3711-12 12s5.3672 12 12 12z"/>
  <path d="m623.1 647h152.86c6.6328 0 12-5.3711 12-12s-5.3672-12-12-12h-152.86c-6.6328 0-12 5.3711-12 12s5.3672 12 12 12z"/>
  <path d="m287.79 719.46h488.17c6.6328 0 12-5.3711 12-12s-5.3672-12-12-12h-488.17c-6.6328 0-12 5.3711-12 12s5.3672 12 12 12z"/>
  <path d="m287.79 790.46h488.17c6.6328 0 12-5.3711 12-12s-5.3672-12-12-12h-488.17c-6.6328 0-12 5.3711-12 12 0 6.625 5.3672 12 12 12z"/>
  <path d="m287.79 861.47h488.17c6.6328 0 12-5.3711 12-12s-5.3672-12-12-12h-488.17c-6.6328 0-12 5.3711-12 12s5.3672 12 12 12z"/>
 </g>
</svg>
