<?xml version="1.0" encoding="UTF-8"?>
<svg width="1200pt" height="1200pt" version="1.1" viewBox="0 0 1200 1200" xmlns="http://www.w3.org/2000/svg">
 <path d="m720 710.4 133.2-133.2v254.4c0 26.398-21.602 48-48 48h-432c-6 0-10.801 2.3984-15.602 6l-128.4 110.4v-91.199c0-13.199-10.801-24-24-24h-48c-26.398 0-48-21.602-48-48v-360c0-26.398 21.602-48 48-48h578.4l-144 144-266.4 0.003906c-13.199 0-24 10.801-24 24s10.801 24 24 24h248.4l-10.801 72h-237.6c-13.199 0-24 10.801-24 24s10.801 24 24 24h252c2.3984 0 3.6016 0 6-1.1992h1.1992 3.6016l118.8-16.801c4.8008-2.4023 9.5977-4.8008 13.199-8.4023zm356.4-492c-9.6016-9.6016-21.602-14.398-33.602-14.398s-25.199 4.8008-33.602 14.398l-16.801 16.801 68.398 68.398 16.801-16.801c18.008-19.195 18.008-49.195-1.1953-68.398zm-416.4 348 68.398 68.398 296.4-297.6-68.398-68.398zm31.199 104.4 2.3984-2.3984-67.199-68.402-2.3984 3.6016-12 79.199z" fill="#16a34a"/>
</svg>
