<svg width="90" height="55" viewBox="0 0 90 55" fill="white" xmlns="http://www.w3.org/2000/svg">
<path d="M67.5 22.5H65V20H62.5V22.5H60V25V27.5H62.5V30H65V27.5H67.5V25V22.5Z"/>
<path d="M30 22.5H27.5V20H25V22.5H22.5V25V27.5H25V30H27.5V27.5H30V25V22.5Z"/>
<path d="M52.5 20H37.5V30H52.5V20Z"/>
<path d="M70 47.5H67.5V45H22.5V47.5H20V50V52.5H17.5V55H72.5V52.5H70V47.5Z"/>
<path d="M87.5 2.5H85V0H5V2.5H2.5V5H0V50H2.5V52.5H5V55H15V52.5H17.5V50V47.5H20V45H22.5V42.5H67.5V45H70V47.5H72.5V52.5H75V55H85V52.5H87.5V50H90V5H87.5V2.5ZM32.5 25V27.5H30V30H27.5V32.5H25V30H22.5V27.5H20V25V22.5H22.5V20H25V17.5H27.5V20H30V22.5H32.5V25ZM55 20V30V32.5H35V30V20V17.5H37.5H52.5H55V20ZM70 25V27.5H67.5V30H65V32.5H62.5V30H60V27.5H57.5V25V22.5H60V20H62.5V17.5H65V20H67.5V22.5H70V25ZM70 15H10V12.5H70V15ZM70 10H10V7.5H70V10Z"/>
</svg>
