<svg fill="white" width="100" height="100" viewBox="0 0 100 100"  xmlns="http://www.w3.org/2000/svg">
<path d="M57.156 21.425V16.665V11.905H52.395V16.665V21.425V26.185H57.156V30.945V35.705H52.395V40.465V45.245H57.156V40.465H61.916V35.705V30.945V26.185V21.425H57.156Z" />
<path d="M38.0862 21.425V16.665V11.905H33.3262V16.665V21.425V26.185H38.0862V30.945V35.705H33.3262V40.465V45.245H38.0862V40.465H42.8462V35.705V30.945V26.185V21.425H38.0862Z" />
<path d="M80.9552 54.774H76.1952V50.014H71.4352H66.6752H61.9152H57.1552H52.3932H47.6042H42.8442H38.0842H33.3242H28.5622H23.8022H19.0422H14.2822V54.774V59.534V64.295H19.0422V69.055V73.816H23.8022V78.576H28.5622V83.336H33.3242V88.096H38.0842H42.8442H47.6042H52.3932H57.1552V83.336H61.9152V78.576H66.6752H71.4352H76.1952H80.9552V73.816H85.7152V69.055V64.295V59.534V54.774H80.9552ZM80.9552 64.295V69.055H76.1952V73.816H71.4352V69.055V64.295H76.1952V59.534H80.9552V64.295Z" />
</svg>
