<svg width="100" height="100" viewBox="0 0 100 100" fill="white" xmlns="http://www.w3.org/2000/svg">
<path d="M93.3333 46.6667V60H86.6667V66.6667H80V60H73.3333V66.6667H66.6667V73.3333H60V80H53.3333V86.6667H60V93.3333H53.3333V100H46.6667V93.3333H40V86.6667H33.3333V80H26.6667V73.3333H20V66.6667H13.3333V60H6.66667V46.6667H0V13.3333H6.66667V6.66667H13.3333V0H33.3333V6.66667H40V13.3333H46.6667V20H53.3333V13.3333H60V6.66667H66.6667V0H86.6667V6.66667H93.3333V13.3333H100V46.6667H93.3333ZM26.6667 6.66667H20V13.3333H13.3333V20H6.66667V26.6667H13.3333V20H20V13.3333H26.6667V6.66667ZM80 6.66667H73.3333V13.3333H66.6667V20H60V26.6667H66.6667V20H73.3333V13.3333H80V6.66667ZM66.6667 80V86.6667H60V80H66.6667ZM73.3333 73.3333V80H66.6667V73.3333H73.3333ZM80 66.6667V73.3333H73.3333V66.6667H80Z"/>
</svg>
