<svg width="84" height="80" viewBox="0 0 84 80" fill="white" xmlns="http://www.w3.org/2000/svg">
<path d="M48 76H44V78H48V76Z"/>
<path d="M52 74H48V76H52V74Z"/>
<path d="M56 72H52V74H56V72Z"/>
<path d="M60 70H56V72H60V70Z"/>
<path d="M64 68H60V70H64V68Z"/>
<path d="M68 66H64V68H68V66Z"/>
<path d="M72 64H68V66H72V64Z"/>
<path d="M76 62H72V64H76V62Z"/>
<path d="M80 60H76V62H80V60Z"/>
<path d="M42 70V74H44V76H42V78H44V80H40V78H36V76H32V74H28V72H24V70H20V68H16V66H12V64H8V62H4V60H2V58H0V54H2V52H4V50H8V52H12V54H16V56H20V58H24V60H28V62H32V64H36V66H40V68H44V70H42Z"/>
<path d="M48 66H44V68H48V66Z"/>
<path d="M52 64H48V66H52V64Z"/>
<path d="M56 62H52V64H56V62Z"/>
<path d="M60 60H56V62H60V60Z"/>
<path d="M64 58H60V60H64V58Z"/>
<path d="M68 56H64V58H68V56Z"/>
<path d="M72 54H68V56H72V54Z"/>
<path d="M76 52H72V54H76V52Z"/>
<path d="M80 50H76V52H80V50Z"/>
<path d="M32 38H28V40H32V38Z"/>
<path d="M28 40H24V42H28V40Z"/>
<path d="M24 42H20V44H24V42Z"/>
<path d="M20 44H16V46H20V44Z"/>
<path d="M12 48H8V50H12V48Z"/>
<path d="M16 46H12V48H16V46Z"/>
<path d="M56 38H52V40H56V38Z"/>
<path d="M52 36H48V38H52V36Z"/>
<path d="M36 36H32V38H36V36Z"/>
<path d="M60 40H56V42H60V40Z"/>
<path d="M64 42H60V44H64V42Z"/>
<path d="M68 44H64V46H68V44Z"/>
<path d="M72 46H68V48H72V46Z"/>
<path d="M76 48H72V50H76V48Z"/>
<path d="M82 58H80V60H82V58Z"/>
<path d="M82 52H80V54H82V52Z"/>
<path d="M84 54H82V58H84V54Z"/>
<path d="M46 51H38V53H46V51Z"/>
<path d="M46 55H38V57H46V55Z"/>
<path d="M50 49H46V51H50V49Z"/>
<path d="M50 45H48V47H50V45Z"/>
<path d="M46 26V34H48V36H46V43H48V45H46V47H44V28H40V47H38V45H36V43H38V36H36V34H38V26H36V24H40V26H44V24H48V26H46Z"/>
<path d="M44 47H40V49H44V47Z"/>
<path d="M36 45H34V47H36V45Z"/>
<path d="M50 53H46V55H50V53Z"/>
<path d="M38 49H34V51H38V49Z"/>
<path d="M38 53H34V55H38V53Z"/>
<path d="M34 47H32V49H34V47Z"/>
<path d="M32 49H30V51H32V49Z"/>
<path d="M34 51H32V53H34V51Z"/>
<path d="M52 47H50V49H52V47Z"/>
<path d="M54 49H52V51H54V49Z"/>
<path d="M52 51H50V53H52V51Z"/>
<path d="M36 22H34V24H36V22Z"/>
<path d="M50 22H48V24H50V22Z"/>
<path d="M52 6H50V10H52V6Z"/>
<path d="M52 14H50V18H52V14Z"/>
<path d="M54 10H52V14H54V10Z"/>
<path d="M50 4H48V6H50V4Z"/>
<path d="M50 18H48V20H50V18Z"/>
<path d="M50 10V14H48V18H46V20H48V22H44V24H40V22H36V20H34V18H32V14H30V10H32V6H34V4H36V2H40V0H44V2H48V4H46V6H48V10H50Z"/>
<path d="M30 46V48H28V50H24V48H22V46H24V44H28V46H30Z"/>
<path d="M46 70H44V72H46V70Z"/>
<path d="M48 72H46V74H48V72Z"/>
<path d="M50 68H48V70H50V68Z"/>
<path d="M52 70H50V72H52V70Z"/>
<path d="M54 66H52V68H54V66Z"/>
<path d="M56 68H54V70H56V68Z"/>
<path d="M58 64H56V66H58V64Z"/>
<path d="M60 66H58V68H60V66Z"/>
<path d="M62 62H60V64H62V62Z"/>
<path d="M64 64H62V66H64V64Z"/>
<path d="M66 60H64V62H66V60Z"/>
<path d="M68 62H66V64H68V62Z"/>
<path d="M70 58H68V60H70V58Z"/>
<path d="M72 60H70V62H72V60Z"/>
<path d="M74 56H72V58H74V56Z"/>
<path d="M76 58H74V60H76V58Z"/>
<path d="M78 54H76V56H78V54Z"/>
<path d="M80 56H78V58H80V56Z"/>
<path d="M22 50V52H20V54H16V52H14V50H16V48H20V50H22Z"/>
</svg>
