<svg width="64" height="64" viewBox="0 0 64 64" fill="white" xmlns="http://www.w3.org/2000/svg">
<path d="M62 24V18H60V14H58V12H56V10H54V8H52V6H50V4H46V2H40V0H24V2H18V4H14V6H12V8H10V10H8V12H6V14H4V18H2V24H0V40H2V46H4V50H6V52H8V54H10V56H12V58H14V60H18V62H23.667H24V64H40V62H46V60H50V58H52V56H54V54H56V52H58V50H60V46H62V40H64V24H62ZM24 56H20V54H16V52H14V50H12V48H10V44H8V40H10V44H12V48H14V50H16V52H20V54H24V56ZM24 50H20V48H18V46H16V44H14V40H16V44H18V46H20V48H24V50ZM44 36H42V40H40V42H36V44H28V42H24V40H22V36H20V28H22V24H24V22H28V20H36V22H40V24H42V28H44V36ZM50 24H48V20H46V18H44V16H40V14H44V16H46V18H48V20H50V24ZM56 24H54V20H52V16H50V14H48V12H44V10H40V8H44V10H48V12H50V14H52V16H54V20H56V24Z"/>
</svg>
