<svg width="40" height="56" viewBox="0 0 40 56" fill="white" xmlns="http://www.w3.org/2000/svg">
<path d="M17.5 20.4099H15H17.5ZM40 32.9099H37.5V35.4099H40V32.9099ZM32.5 25.4099H30V27.9099H32.5V25.4099ZM32.5 27.9099H30V30.4099H32.5V27.9099ZM32.5 30.4099H30V32.9099H32.5V30.4099ZM32.5 20.4099H30V22.9099H32.5V20.4099ZM32.5 20.4099H30H32.5ZM40 25.4099H37.5V27.9099H40V25.4099ZM40 22.9099H37.5V25.4099H40V22.9099ZM40 20.4099H37.5V22.9099H40V20.4099ZM40 17.9099H37.5V20.4099H40V17.9099ZM40 15.4099H37.5V17.9099H40V15.4099ZM40 12.9099H37.5V15.4099H40V12.9099ZM40 10.4099H37.5V12.9099H40V10.4099ZM40 7.90991H37.5V10.4099H40V7.90991ZM40 5.40991H37.5V7.90991H40V5.40991ZM40 2.90991H37.5V5.40991H40V2.90991ZM40 27.9099H37.5V30.4099H40V27.9099ZM40 30.4099H37.5V32.9099H40V30.4099ZM40 35.4099H37.5V37.9099H40V35.4099ZM40 37.9099H37.5V40.4099H40V37.9099ZM40 40.4099H37.5V42.9099H40V40.4099ZM37.5 42.9099H35V45.4099H37.5V42.9099ZM37.5 45.4099H35V47.9099H37.5V45.4099ZM37.5 47.9099H35V50.4099H37.5V47.9099ZM35 50.4099H32.5V52.9099H35V50.4099ZM35 52.9099H32.5V55.4099H35V52.9099ZM32.5 52.9099H30V55.4099H32.5V52.9099ZM30 52.9099H27.5V55.4099H30V52.9099ZM27.5 52.9099H25V55.4099H27.5V52.9099ZM25 52.9099H22.5V55.4099H25V52.9099ZM22.5 52.9099H20V55.4099H22.5V52.9099ZM20 52.9099H17.5V55.4099H20V52.9099ZM17.5 52.9099H15V55.4099H17.5V52.9099ZM15 52.9099H12.5V55.4099H15V52.9099ZM12.5 52.9099H10V55.4099H12.5V52.9099ZM32.5 22.9099H30V25.4099H32.5V22.9099ZM17.5 20.4099H15V22.9099H17.5V20.4099ZM17.5 22.9099H15V25.4099H17.5V22.9099ZM17.5 25.4099H15V27.9099H17.5V25.4099ZM17.5 27.9099H15V30.4099H17.5V27.9099ZM10 20.4099H7.5H10ZM10 20.4099H7.5V22.9099H10V20.4099ZM10 17.9099H7.5V20.4099H10V17.9099ZM17.5 17.9099H15V20.4099H17.5V17.9099ZM35 0.409912H32.5V2.90991H35V0.409912ZM20 17.9099H17.5V20.4099H20V17.9099ZM22.5 17.9099H20V20.4099H22.5V17.9099ZM25 20.4099H22.5V22.9099H25V20.4099ZM25 22.9099H22.5V25.4099H25V22.9099ZM25 25.4099H22.5V27.9099H25V25.4099ZM25 27.9099H22.5V30.4099H25V27.9099ZM25 30.4099H22.5V32.9099H25V30.4099ZM27.5 32.9099H25V35.4099H27.5V32.9099ZM30 32.9099H27.5V35.4099H30V32.9099ZM22.5 32.9099H20V35.4099H22.5V32.9099ZM27.5 17.9099H25V20.4099H27.5V17.9099ZM30 17.9099H27.5V20.4099H30V17.9099ZM37.5 0.409912H35V2.90991H37.5V0.409912ZM10 22.9099H7.5V25.4099H10V22.9099ZM10 25.4099H7.5V27.9099H10V25.4099ZM12.5 27.9099H10V30.4099H12.5V27.9099ZM15 27.9099H12.5V30.4099H15V27.9099ZM17.5 30.4099H15V32.9099H17.5V30.4099ZM20 32.9099H17.5V35.4099H20V32.9099ZM20 35.4099H17.5V37.9099H20V35.4099ZM17.5 37.9099H15V40.4099H17.5V37.9099ZM15 37.9099H12.5V40.4099H15V37.9099ZM12.5 35.4099H10V37.9099H12.5V35.4099ZM7.5 25.4099H5V27.9099H7.5V25.4099ZM5 25.4099H2.5V27.9099H5V25.4099ZM2.5 27.9099H0V30.4099H2.5V27.9099ZM2.5 30.4099H0V32.9099H2.5V30.4099ZM2.5 32.9099H0V35.4099H2.5V32.9099ZM2.5 35.4099H0V37.9099H2.5V35.4099ZM5 37.9099H2.5V40.4099H5V37.9099ZM5 40.4099H2.5V42.9099H5V40.4099ZM7.5 42.9099H5V45.4099H7.5V42.9099ZM10 45.4099H7.5V47.9099H10V45.4099ZM10 47.9099H7.5V50.4099H10V47.9099ZM12.5 50.4099H10V52.9099H12.5V50.4099ZM12.5 52.9099H10V55.4099H12.5V52.9099ZM12.5 0.409912H10V2.90991H12.5V0.409912ZM15 0.409912H12.5V2.90991H15V0.409912ZM17.5 2.90991H15V5.40991H17.5V2.90991ZM17.5 5.40991H15V7.90991H17.5V5.40991ZM17.5 7.90991H15V10.4099H17.5V7.90991ZM17.5 10.4099H15V12.9099H17.5V10.4099ZM17.5 12.9099H15V15.4099H17.5V12.9099ZM17.5 17.9099V15.4099H15V17.9099H17.5ZM10 2.90991H7.5V5.40991H10V2.90991ZM10 5.40991H7.5V7.90991H10V5.40991ZM10 7.90991H7.5V10.4099H10V7.90991ZM10 10.4099H7.5V12.9099H10V10.4099ZM10 12.9099H7.5V15.4099H10V12.9099ZM10 17.9099V15.4099H7.5V17.9099H10ZM32.5 7.90991H30V10.4099H32.5V7.90991ZM32.5 5.40991H30V7.90991H32.5V5.40991ZM32.5 2.90991H30V5.40991H32.5V2.90991ZM32.5 10.4099H30V12.9099H32.5V10.4099ZM32.5 12.9099H30V15.4099H32.5V12.9099ZM32.5 15.4099H30V17.9099H32.5V15.4099ZM32.5 17.9099H30V20.4099H32.5V17.9099Z"/>
</svg>
