<svg width="210" height="226" viewBox="0 0 210 226" fill="none" xmlns="http://www.w3.org/2000/svg">
<path d="M195.892 52.8455C178.995 66.5001 160.495 81.0001 142.995 95.3455C138.994 98.6254 131.254 105.618 127.014 108.554C125.799 109.395 125.753 109.408 127.5 110.5C131.5 113 131.5 113 136 116C141.5 120 148.5 125 154 129C163.242 136.182 170.5 142 180.567 149.909C186.75 154.766 192.314 159.262 198 164C199.065 164.888 198.5 164.5 202 167.5" stroke="white" stroke-width="15" stroke-linecap="round" stroke-linejoin="round"/>
<path d="M13.9768 52.8453C30.8733 66.5 49 81.0001 66.8733 95.3454C70.9081 98.5837 78.5 105 82.855 108.554C84 109.5 84.0111 109.5 82.5 110.5C79.4778 112.5 76.5 114.5 73.5001 116.5C67.9081 120.461 62 125 56.5001 129C47.2583 136.182 39 142.5 29.5001 150C23.4646 154.765 17 160 12.1587 163.932C11.0935 164.82 11.5 164.5 8.00007 167.5" stroke="white" stroke-width="15" stroke-linecap="round" stroke-linejoin="round"/>
<path d="M104.971 8C104.971 65.472 104.971 122.944 104.971 180.416C104.971 192.596 104.971 205.802 104.971 218" stroke="white" stroke-width="15" stroke-linecap="round" stroke-linejoin="round"/>
</svg>
